<svg xmlns="http://www.w3.org/2000/svg" viewBox="0 0 360 100" width="360" height="100">
  <defs>
    <linearGradient id="h" x1="0%" y1="0%" x2="0%" y2="100%">
      <stop offset="0%" stop-color="#27272A"/>
      <stop offset="100%" stop-color="#18181B"/>
    </linearGradient>
    <filter id="s">
      <feDropShadow dx="0" dy="1" stdDeviation="2.5" flood-color="#000" flood-opacity="0.2"/>
    </filter>
  </defs>

  <!-- Robot 1 — Organizer (left, small) -->
  <g transform="translate(75, 68)" filter="url(#s)">
    <line x1="0" y1="-38" x2="0" y2="-47" stroke="#FBBF24" stroke-width="2" stroke-linecap="round"/>
    <circle cx="0" cy="-50" r="3" fill="#FBBF24"/>
    <rect x="-24" y="-36" width="48" height="38" rx="11" fill="url(#h)" stroke="#3F3F46" stroke-width="1.5"/>
    <rect x="-17" y="-28" width="34" height="20" rx="6" fill="#0F0F12" stroke="#3F3F46" stroke-width="1"/>
    <circle cx="-7" cy="-18" r="4" fill="#FBBF24"/>
    <circle cx="7" cy="-18" r="4" fill="#FBBF24"/>
    <circle cx="-7" cy="-18" r="1.8" fill="#0F0F12"/>
    <circle cx="7" cy="-18" r="1.8" fill="#0F0F12"/>
    <rect x="-8" y="-4" width="16" height="2.5" rx="1.2" fill="#3F3F46"/>
    <rect x="-28" y="-26" width="5" height="12" rx="2.5" fill="#27272A" stroke="#3F3F46" stroke-width="1"/>
    <rect x="23" y="-26" width="5" height="12" rx="2.5" fill="#27272A" stroke="#3F3F46" stroke-width="1"/>
  </g>

  <!-- Robot 2 — Builder (center, large) -->
  <g transform="translate(180, 62)" filter="url(#s)">
    <line x1="-7" y1="-46" x2="-7" y2="-57" stroke="#FBBF24" stroke-width="2" stroke-linecap="round"/>
    <circle cx="-7" cy="-60" r="3.5" fill="#FBBF24"/>
    <line x1="7" y1="-46" x2="7" y2="-54" stroke="#FBBF24" stroke-width="2" stroke-linecap="round"/>
    <circle cx="7" cy="-57" r="2.8" fill="#FBBF24"/>
    <rect x="-30" y="-44" width="60" height="46" rx="13" fill="url(#h)" stroke="#3F3F46" stroke-width="1.5"/>
    <path d="M-18,-44 Q0,-52 18,-44" fill="none" stroke="#FBBF24" stroke-width="1.8" stroke-linecap="round" opacity="0.65"/>
    <rect x="-22" y="-35" width="44" height="24" rx="7" fill="#0F0F12" stroke="#3F3F46" stroke-width="1"/>
    <circle cx="-9" cy="-23" r="5" fill="#FBBF24"/>
    <circle cx="9" cy="-23" r="5" fill="#FBBF24"/>
    <circle cx="-9" cy="-23" r="2.2" fill="#0F0F12"/>
    <circle cx="9" cy="-23" r="2.2" fill="#0F0F12"/>
    <rect x="-10" y="-6" width="20" height="3" rx="1.5" fill="#3F3F46"/>
    <rect x="-34" y="-32" width="6" height="14" rx="3" fill="#27272A" stroke="#3F3F46" stroke-width="1"/>
    <rect x="28" y="-32" width="6" height="14" rx="3" fill="#27272A" stroke="#3F3F46" stroke-width="1"/>
  </g>

  <!-- Robot 3 — Inspector (right, medium) -->
  <g transform="translate(285, 66)" filter="url(#s)">
    <line x1="0" y1="-40" x2="0" y2="-50" stroke="#FBBF24" stroke-width="2" stroke-linecap="round"/>
    <rect x="-3.5" y="-55" width="7" height="5" rx="1.5" fill="#FBBF24"/>
    <rect x="-26" y="-38" width="52" height="42" rx="12" fill="url(#h)" stroke="#3F3F46" stroke-width="1.5"/>
    <rect x="-19" y="-30" width="38" height="22" rx="8" fill="#0F0F12" stroke="#3F3F46" stroke-width="1"/>
    <line x1="-13" y1="-14" x2="13" y2="-14" stroke="#FBBF24" stroke-width="0.8" opacity="0.3" stroke-linecap="round"/>
    <circle cx="-8" cy="-20" r="4.5" fill="#FBBF24"/>
    <circle cx="8" cy="-20" r="4.5" fill="#FBBF24"/>
    <circle cx="-8" cy="-20" r="2" fill="#0F0F12"/>
    <circle cx="8" cy="-20" r="2" fill="#0F0F12"/>
    <rect x="-9" y="-3" width="18" height="2.5" rx="1.2" fill="#3F3F46"/>
    <rect x="-30" y="-28" width="5.5" height="13" rx="2.5" fill="#27272A" stroke="#3F3F46" stroke-width="1"/>
    <rect x="24.5" y="-28" width="5.5" height="13" rx="2.5" fill="#27272A" stroke="#3F3F46" stroke-width="1"/>
  </g>
</svg>
